<svg xmlns="http://www.w3.org/2000/svg" viewBox="0 0 518 285.03"><defs><style>.cls-1{fill:none;}.cls-2{fill:#fff;}.cls-3{fill:#f6f6f6;}</style></defs><title>Asset 1</title><g id="Layer_2" data-name="Layer 2"><g id="Layer_2-2" data-name="Layer 2"><rect class="cls-1" width="518" height="285.03"/></g><g id="Layer_1-2" data-name="Layer 1"><path class="cls-2" d="M194.19,132.33l8.41,22.49h-5.13l-1.71-5h-8.41l-1.76,5h-5l8.51-22.49Zm.28,13.79-2.83-8.25h-.07l-2.93,8.25Z"/><path class="cls-2" d="M215.77,132.33a14,14,0,0,1,2.93.28,6.38,6.38,0,0,1,2.27.93,4.23,4.23,0,0,1,1.46,1.72,5.94,5.94,0,0,1,.52,2.64,4.9,4.9,0,0,1-.77,2.84,5.66,5.66,0,0,1-2.28,1.86,5.4,5.4,0,0,1,3.1,2.09,6.26,6.26,0,0,1,1,3.61,6.19,6.19,0,0,1-.67,2.94,5.75,5.75,0,0,1-1.78,2,7.82,7.82,0,0,1-2.55,1.16,11.56,11.56,0,0,1-2.94.38H205.18V132.33Zm-.63,9.1a3.53,3.53,0,0,0,2.17-.63,2.38,2.38,0,0,0,.86-2.05,2.62,2.62,0,0,0-.29-1.29,2.11,2.11,0,0,0-.75-.79,3.14,3.14,0,0,0-1.09-.39,7.62,7.62,0,0,0-1.28-.11h-4.63v5.26Zm.28,9.55a6.23,6.23,0,0,0,1.39-.15,3.38,3.38,0,0,0,1.17-.47,2.41,2.41,0,0,0,.8-.9,3.06,3.06,0,0,0,.3-1.45,2.92,2.92,0,0,0-1-2.47,4.18,4.18,0,0,0-2.58-.74h-5.39V151Z"/><path class="cls-2" d="M241.16,138.33a4.85,4.85,0,0,0-1.1-1.25,5.29,5.29,0,0,0-1.49-.83,5.15,5.15,0,0,0-1.75-.3,5.79,5.79,0,0,0-2.84.64,5.27,5.27,0,0,0-1.89,1.74A7.86,7.86,0,0,0,231,140.8a12.32,12.32,0,0,0-.33,2.87,11.44,11.44,0,0,0,.33,2.75,7.62,7.62,0,0,0,1.06,2.41,5.31,5.31,0,0,0,1.89,1.72,5.79,5.79,0,0,0,2.84.65,4.59,4.59,0,0,0,3.54-1.39,7.39,7.39,0,0,0,1.58-3.95h4.77a13.32,13.32,0,0,1-1,4.11,9.15,9.15,0,0,1-2.08,2.9,9,9,0,0,1-3,1.82,11.12,11.12,0,0,1-3.81.63,11.65,11.65,0,0,1-4.65-.89,9.9,9.9,0,0,1-3.48-2.48,11,11,0,0,1-2.18-3.7,13.67,13.67,0,0,1-.75-4.58,14.18,14.18,0,0,1,.75-4.68,11.27,11.27,0,0,1,2.18-3.77,9.87,9.87,0,0,1,3.48-2.52,12,12,0,0,1,8.16-.37,9.4,9.4,0,0,1,3,1.55,8.58,8.58,0,0,1,2.16,2.54,9.06,9.06,0,0,1,1.07,3.47h-4.79A3.86,3.86,0,0,0,241.16,138.33Z"/><path class="cls-2" d="M235.42,37.14a3.5,3.5,0,0,1,3.5,3.5v71.5a3.5,3.5,0,0,0,3.5,3.5h69.24a3.5,3.5,0,0,1,3.5,3.5V169a3.5,3.5,0,0,1-3.5,3.5H242.42a3.5,3.5,0,0,0-3.5,3.49v67a3.5,3.5,0,0,1-3.5,3.5H185.58a3.5,3.5,0,0,1-3.49-3.5V176a3.5,3.5,0,0,0-3.5-3.49H109.36a3.5,3.5,0,0,1-3.5-3.5V119.14a3.5,3.5,0,0,1,3.5-3.5h69.23a3.5,3.5,0,0,0,3.5-3.5V41.53a4.39,4.39,0,0,1,4.39-4.39h48.94m0-11.37H186.48a15.78,15.78,0,0,0-15.76,15.76v62.74H109.36a14.89,14.89,0,0,0-14.87,14.87V169a14.88,14.88,0,0,0,14.87,14.86h61.36v59.09a14.88,14.88,0,0,0,14.86,14.87h49.84a14.89,14.89,0,0,0,14.87-14.87V183.84h61.37A14.88,14.88,0,0,0,326.53,169V119.14a14.89,14.89,0,0,0-14.87-14.87H250.29V40.64a14.89,14.89,0,0,0-14.87-14.87Z"/><path class="cls-2" d="M275.11,195.6V199h-8.76v4.19h7.59v3.09h-7.59v7.49h-4V195.6Z"/><path class="cls-2" d="M281.4,195.6v18.12h-4V195.6Z"/><path class="cls-2" d="M294.68,195.6a5.87,5.87,0,0,1,2.2.39,4.91,4.91,0,0,1,1.67,1.08,4.51,4.51,0,0,1,1.07,1.59,5,5,0,0,1,.37,1.94,5.5,5.5,0,0,1-.67,2.76,4.19,4.19,0,0,1-2.2,1.78v.05a3.26,3.26,0,0,1,1.22.62,3.63,3.63,0,0,1,.79,1,4.7,4.7,0,0,1,.44,1.26,11,11,0,0,1,.19,1.37c0,.29,0,.63.05,1s.05.79.09,1.19a8.24,8.24,0,0,0,.2,1.16,2.89,2.89,0,0,0,.42.92h-4a7,7,0,0,1-.41-2.05c-.05-.8-.13-1.56-.23-2.29a3.55,3.55,0,0,0-.86-2.08,3,3,0,0,0-2.16-.66h-4v7.08h-4V195.6Zm-1.42,8.2a3.07,3.07,0,0,0,2.06-.61,2.56,2.56,0,0,0,.68-2,2.45,2.45,0,0,0-.68-1.92,3.07,3.07,0,0,0-2.06-.6h-4.37v5.11Z"/><path class="cls-2" d="M306.29,209.26a2.89,2.89,0,0,0,.87,1,3.68,3.68,0,0,0,1.28.59,6.41,6.41,0,0,0,1.53.19,7.91,7.91,0,0,0,1.14-.09,3.87,3.87,0,0,0,1.14-.34,2.57,2.57,0,0,0,.89-.7,1.73,1.73,0,0,0,.35-1.13,1.62,1.62,0,0,0-.46-1.2,4,4,0,0,0-1.24-.76,12.12,12.12,0,0,0-1.72-.53c-.65-.15-1.3-.32-2-.51a17.45,17.45,0,0,1-2-.62,6.8,6.8,0,0,1-1.72-1,4.62,4.62,0,0,1-1.24-1.46,4.48,4.48,0,0,1-.46-2.12,4.76,4.76,0,0,1,.59-2.43,5.55,5.55,0,0,1,1.56-1.71,6.78,6.78,0,0,1,2.19-1,9.24,9.24,0,0,1,2.43-.33,11.6,11.6,0,0,1,2.73.32,6.93,6.93,0,0,1,2.33,1,5.24,5.24,0,0,1,1.61,1.82,5.49,5.49,0,0,1,.59,2.67h-3.85a3.17,3.17,0,0,0-.35-1.34,2.16,2.16,0,0,0-.77-.84,3.24,3.24,0,0,0-1.1-.43,6.47,6.47,0,0,0-1.36-.13,5.23,5.23,0,0,0-1,.1,2.58,2.58,0,0,0-.87.36,2.17,2.17,0,0,0-.65.63,1.73,1.73,0,0,0-.26,1,1.59,1.59,0,0,0,.21.86,1.8,1.8,0,0,0,.8.61,9.69,9.69,0,0,0,1.65.56l2.75.71c.34.07.81.19,1.41.37a6.78,6.78,0,0,1,1.79.85,5.45,5.45,0,0,1,1.54,1.56,4.46,4.46,0,0,1,.64,2.5,5.56,5.56,0,0,1-.48,2.31,5,5,0,0,1-1.43,1.84,6.91,6.91,0,0,1-2.36,1.21,11.12,11.12,0,0,1-3.27.43,11.25,11.25,0,0,1-2.9-.37,7.3,7.3,0,0,1-2.49-1.15,5.74,5.74,0,0,1-1.71-2,5.87,5.87,0,0,1-.61-2.89H306A3.23,3.23,0,0,0,306.29,209.26Z"/><path class="cls-2" d="M318.29,199V195.6h14.86V199h-5.44v14.77h-4V199Z"/><path class="cls-2" d="M352.06,195.6a5.91,5.91,0,0,1,2.2.39,4.91,4.91,0,0,1,1.67,1.08,4.65,4.65,0,0,1,1.07,1.59,5.15,5.15,0,0,1,.37,1.94,5.4,5.4,0,0,1-.68,2.76,4.17,4.17,0,0,1-2.19,1.78v.05a3.26,3.26,0,0,1,1.22.62,3.42,3.42,0,0,1,.78,1,4.39,4.39,0,0,1,.45,1.26,11,11,0,0,1,.19,1.37c0,.29,0,.63.05,1s.05.79.09,1.19a8.24,8.24,0,0,0,.2,1.16,2.52,2.52,0,0,0,.42.92h-4a7,7,0,0,1-.4-2.05c-.05-.8-.13-1.56-.23-2.29a3.62,3.62,0,0,0-.86-2.08,3,3,0,0,0-2.16-.66h-4v7.08h-4V195.6Zm-1.42,8.2a3.07,3.07,0,0,0,2.06-.61,2.56,2.56,0,0,0,.68-2,2.45,2.45,0,0,0-.68-1.92,3.07,3.07,0,0,0-2.06-.6h-4.37v5.11Z"/><path class="cls-2" d="M374.18,195.6V199H364.6v3.88h8.79v3.1H364.6v4.44h9.78v3.35H360.62V195.6Z"/><path class="cls-2" d="M380.12,209.26a2.89,2.89,0,0,0,.87,1,3.73,3.73,0,0,0,1.29.59,6.33,6.33,0,0,0,1.52.19,7.91,7.91,0,0,0,1.14-.09,3.87,3.87,0,0,0,1.14-.34,2.48,2.48,0,0,0,.89-.7,1.74,1.74,0,0,0,.36-1.13,1.63,1.63,0,0,0-.47-1.2,4.09,4.09,0,0,0-1.23-.76,12.7,12.7,0,0,0-1.73-.53c-.64-.15-1.29-.32-2-.51a17.45,17.45,0,0,1-2-.62,7,7,0,0,1-1.72-1,4.46,4.46,0,0,1-1.23-1.46,4.37,4.37,0,0,1-.47-2.12,4.86,4.86,0,0,1,.59-2.43,5.55,5.55,0,0,1,1.56-1.71,6.88,6.88,0,0,1,2.19-1,9.25,9.25,0,0,1,2.44-.33,11.57,11.57,0,0,1,2.72.32,6.84,6.84,0,0,1,2.33,1,5.24,5.24,0,0,1,1.61,1.82,5.49,5.49,0,0,1,.6,2.67h-3.86a3.17,3.17,0,0,0-.35-1.34,2.16,2.16,0,0,0-.77-.84,3.24,3.24,0,0,0-1.1-.43,6.47,6.47,0,0,0-1.36-.13,5.32,5.32,0,0,0-1,.1,2.58,2.58,0,0,0-.87.36,2.17,2.17,0,0,0-.65.63,1.73,1.73,0,0,0-.25,1,1.59,1.59,0,0,0,.2.86,1.8,1.8,0,0,0,.8.61,10.36,10.36,0,0,0,1.65.56l2.75.71c.34.07.81.19,1.41.37a6.78,6.78,0,0,1,1.79.85,5.33,5.33,0,0,1,1.54,1.56,4.46,4.46,0,0,1,.65,2.5,5.41,5.41,0,0,1-.49,2.31,5,5,0,0,1-1.43,1.84,6.91,6.91,0,0,1-2.36,1.21,11.1,11.1,0,0,1-3.26.43,11.27,11.27,0,0,1-2.91-.37,7.3,7.3,0,0,1-2.49-1.15,5.74,5.74,0,0,1-1.71-2,5.87,5.87,0,0,1-.61-2.89h3.86A3.35,3.35,0,0,0,380.12,209.26Z"/><path class="cls-2" d="M401.72,195.6a7.58,7.58,0,0,1,2.9.49,5.49,5.49,0,0,1,1.94,1.31,5,5,0,0,1,1.09,1.85,6.87,6.87,0,0,1,.34,2.16,6.79,6.79,0,0,1-.34,2.14,5,5,0,0,1-1.09,1.87,5.49,5.49,0,0,1-1.94,1.31,7.58,7.58,0,0,1-2.9.49h-4.19v6.5h-4V195.6Zm-1.09,8.53A8,8,0,0,0,402,204a2.87,2.87,0,0,0,1.12-.39,2.1,2.1,0,0,0,.77-.82,3.52,3.52,0,0,0,0-2.8,2.1,2.1,0,0,0-.77-.82,2.87,2.87,0,0,0-1.12-.39,8,8,0,0,0-1.32-.11h-3.1v5.44Z"/><path class="cls-2" d="M410.3,201a9.09,9.09,0,0,1,1.76-3,8,8,0,0,1,2.8-2,9.87,9.87,0,0,1,7.5,0,8.08,8.08,0,0,1,2.8,2,9.24,9.24,0,0,1,1.75,3,11.21,11.21,0,0,1,.61,3.77,10.82,10.82,0,0,1-.61,3.69,8.86,8.86,0,0,1-1.75,3,8.14,8.14,0,0,1-2.8,2,10.13,10.13,0,0,1-7.5,0,8,8,0,0,1-2.8-2,8.72,8.72,0,0,1-1.76-3,11.07,11.07,0,0,1-.61-3.69A11.46,11.46,0,0,1,410.3,201Zm3.65,6a6.06,6.06,0,0,0,.85,1.94,4.21,4.21,0,0,0,1.52,1.38,5.28,5.28,0,0,0,4.57,0,4.13,4.13,0,0,0,1.52-1.38,6.08,6.08,0,0,0,.86-1.94,9.63,9.63,0,0,0,.26-2.22,10.29,10.29,0,0,0-.26-2.31,6.21,6.21,0,0,0-.86-2,4.15,4.15,0,0,0-1.52-1.39,5.28,5.28,0,0,0-4.57,0,4.23,4.23,0,0,0-1.52,1.39,6.2,6.2,0,0,0-.85,2,9.74,9.74,0,0,0-.27,2.31A9.12,9.12,0,0,0,414,207Z"/><path class="cls-2" d="M434.2,195.6l7.56,12.16h.05V195.6h3.73v18.12h-4L434,201.59h0v12.13h-3.73V195.6Z"/><path class="cls-2" d="M452.1,209.26a2.89,2.89,0,0,0,.87,1,3.68,3.68,0,0,0,1.28.59,6.41,6.41,0,0,0,1.53.19,7.91,7.91,0,0,0,1.14-.09,3.87,3.87,0,0,0,1.14-.34,2.57,2.57,0,0,0,.89-.7,1.74,1.74,0,0,0,.36-1.13,1.63,1.63,0,0,0-.47-1.2,4.09,4.09,0,0,0-1.23-.76,12.7,12.7,0,0,0-1.73-.53c-.64-.15-1.3-.32-2-.51a17.45,17.45,0,0,1-2-.62,6.8,6.8,0,0,1-1.72-1,4.46,4.46,0,0,1-1.23-1.46,4.37,4.37,0,0,1-.47-2.12,4.76,4.76,0,0,1,.59-2.43,5.55,5.55,0,0,1,1.56-1.71,6.78,6.78,0,0,1,2.19-1,9.24,9.24,0,0,1,2.43-.33,11.6,11.6,0,0,1,2.73.32,6.84,6.84,0,0,1,2.33,1,5.24,5.24,0,0,1,1.61,1.82,5.49,5.49,0,0,1,.6,2.67H458.7a3.17,3.17,0,0,0-.35-1.34,2.16,2.16,0,0,0-.77-.84,3.24,3.24,0,0,0-1.1-.43,6.47,6.47,0,0,0-1.36-.13,5.23,5.23,0,0,0-1,.1,2.58,2.58,0,0,0-.87.36,2.17,2.17,0,0,0-.65.63,1.73,1.73,0,0,0-.26,1,1.59,1.59,0,0,0,.21.86,1.8,1.8,0,0,0,.8.61,10,10,0,0,0,1.65.56l2.75.71c.34.07.81.19,1.41.37a6.78,6.78,0,0,1,1.79.85,5.45,5.45,0,0,1,1.54,1.56,4.46,4.46,0,0,1,.64,2.5,5.56,5.56,0,0,1-.48,2.31,5,5,0,0,1-1.43,1.84,6.91,6.91,0,0,1-2.36,1.21,11.12,11.12,0,0,1-3.27.43,11.25,11.25,0,0,1-2.9-.37,7.3,7.3,0,0,1-2.49-1.15,5.74,5.74,0,0,1-1.71-2,5.87,5.87,0,0,1-.61-2.89h3.86A3.23,3.23,0,0,0,452.1,209.26Z"/><path class="cls-2" d="M479.08,195.6V199h-9.57v3.88h8.79v3.1h-8.79v4.44h9.78v3.35H465.53V195.6Z"/><path class="cls-3" d="M269.06,222l-.33,1.43h-3.41l-.31,1.38h3.15l-.33,1.43h-3.15l-.73,3.16H262l1.71-7.4Z"/><path class="cls-3" d="M275,225.9a4.17,4.17,0,0,1-.26,1.47,3.64,3.64,0,0,1-.74,1.18,3.52,3.52,0,0,1-1.16.79,4,4,0,0,1-1.53.28,2.8,2.8,0,0,1-1.92-.6,2.12,2.12,0,0,1-.66-1.65A4,4,0,0,1,269,226a3.35,3.35,0,0,1,.73-1.18,3.43,3.43,0,0,1,1.16-.8,4,4,0,0,1,1.55-.29,2.84,2.84,0,0,1,1.92.59A2.09,2.09,0,0,1,275,225.9Zm-2.33,1.83A2.78,2.78,0,0,0,273,227a3.63,3.63,0,0,0,.11-1,1.2,1.2,0,0,0-.22-.79.85.85,0,0,0-.71-.28,1.14,1.14,0,0,0-.66.19,1.59,1.59,0,0,0-.51.52,2.59,2.59,0,0,0-.32.77,3.81,3.81,0,0,0-.12,1,1.1,1.1,0,0,0,.26.82.93.93,0,0,0,.69.25,1.15,1.15,0,0,0,.62-.18A1.59,1.59,0,0,0,272.68,227.73Z"/><path class="cls-3" d="M280.51,225.56h-.16l-.34-.06-.43,0a3.74,3.74,0,0,0-.68.06,4.44,4.44,0,0,0-.68.16l-.87,3.74h-1.8l1.3-5.58h1.8l-.19.82a6,6,0,0,1,1-.61,2.36,2.36,0,0,1,1-.23h.21l.2,0Z"/><path class="cls-3" d="M291.12,229.44h-1.93l-.17-1.51H286.3l-.86,1.51h-2l4.44-7.4h2.21Zm-2.24-2.84-.3-2.64-1.52,2.64Z"/><path class="cls-3" d="M295.6,221.7l-1.79,7.74H292l1.79-7.74Z"/><path class="cls-3" d="M299.08,221.7l-1.79,7.74h-1.8l1.79-7.74Z"/><path class="cls-3" d="M310.79,222,307,226.58l-.66,2.86h-1.92l.64-2.77-1.7-4.63h2l1,2.9,2.21-2.9Z"/><path class="cls-3" d="M316.4,225.9a4.17,4.17,0,0,1-.26,1.47,3.64,3.64,0,0,1-.74,1.18,3.52,3.52,0,0,1-1.16.79,4,4,0,0,1-1.53.28,2.8,2.8,0,0,1-1.92-.6,2.12,2.12,0,0,1-.66-1.65,4,4,0,0,1,.25-1.42,3.35,3.35,0,0,1,.73-1.18,3.43,3.43,0,0,1,1.16-.8,4,4,0,0,1,1.55-.29,2.84,2.84,0,0,1,1.92.59A2.09,2.09,0,0,1,316.4,225.9Zm-2.33,1.83a2.78,2.78,0,0,0,.35-.76,3.63,3.63,0,0,0,.11-1,1.2,1.2,0,0,0-.22-.79.85.85,0,0,0-.71-.28,1.14,1.14,0,0,0-.66.19,1.59,1.59,0,0,0-.51.52,2.59,2.59,0,0,0-.32.77,3.81,3.81,0,0,0-.12,1,1.1,1.1,0,0,0,.26.82.93.93,0,0,0,.69.25,1.21,1.21,0,0,0,.63-.18A1.66,1.66,0,0,0,314.07,227.73Z"/><path class="cls-3" d="M323.81,223.86l-1.29,5.58h-1.81l.15-.61-.53.32a3.57,3.57,0,0,1-.48.24,2.22,2.22,0,0,1-.53.16,2.59,2.59,0,0,1-.47,0,1.73,1.73,0,0,1-1.16-.36,1.25,1.25,0,0,1-.43-1c0-.13,0-.24,0-.35a2.83,2.83,0,0,1,.07-.36l.84-3.63H320l-.64,2.77c-.05.21-.08.39-.11.54a3.67,3.67,0,0,0,0,.39.66.66,0,0,0,.16.48,1,1,0,0,0,.61.14,1.71,1.71,0,0,0,.5-.09,3.54,3.54,0,0,0,.62-.27l.91-4Z"/><path class="cls-3" d="M329.16,225.56H329l-.34-.06-.43,0a3.74,3.74,0,0,0-.68.06,4.44,4.44,0,0,0-.68.16l-.87,3.74h-1.8l1.3-5.58h1.8l-.19.82a6,6,0,0,1,1-.61,2.33,2.33,0,0,1,1-.23h.21l.2,0Z"/><path class="cls-3" d="M339.86,222l-.33,1.43h-3.4l-.32,1.38H339l-.32,1.43h-3.16l-.73,3.16h-1.91l1.71-7.4Z"/><path class="cls-3" d="M342.47,223.86l-1.3,5.58h-1.8l1.3-5.58Zm.55-2.16-.32,1.36h-1.9l.32-1.36Z"/><path class="cls-3" d="M347.81,225.56h-.16l-.34-.06-.43,0a3.82,3.82,0,0,0-.68.06,4.74,4.74,0,0,0-.68.16l-.86,3.74h-1.81l1.3-5.58H346l-.19.82a6.46,6.46,0,0,1,1-.61,2.36,2.36,0,0,1,1-.23H348l.21,0Z"/><path class="cls-3" d="M350.07,229.6a7,7,0,0,1-1.39-.14,4.41,4.41,0,0,1-1-.31l.35-1.47h.16l.28.21a3,3,0,0,0,.47.23,3,3,0,0,0,.62.2,3,3,0,0,0,.75.08,2.11,2.11,0,0,0,.9-.14.43.43,0,0,0,.3-.39.33.33,0,0,0-.21-.31,5.55,5.55,0,0,0-.89-.26,3.64,3.64,0,0,1-1.56-.63,1.2,1.2,0,0,1-.42-.93,1.68,1.68,0,0,1,.85-1.49,4.09,4.09,0,0,1,2.28-.55,6,6,0,0,1,1.26.13,3.84,3.84,0,0,1,.92.27l-.33,1.41h-.16a2.84,2.84,0,0,0-.85-.44,3,3,0,0,0-1-.17,2.3,2.3,0,0,0-.88.13.44.44,0,0,0-.3.42.36.36,0,0,0,.26.34,4.37,4.37,0,0,0,.83.24,4,4,0,0,1,1.52.58,1.14,1.14,0,0,1,.47,1,1.67,1.67,0,0,1-.86,1.48A4.29,4.29,0,0,1,350.07,229.6Z"/><path class="cls-3" d="M356.11,229.55a2.25,2.25,0,0,1-1.33-.3,1.08,1.08,0,0,1-.4-.91,3,3,0,0,1,0-.31c0-.1,0-.22.07-.35l.61-2.64h-.74l.27-1.18h.74l.37-1.6h1.8l-.37,1.6h1.68l-.28,1.18h-1.67l-.47,2-.09.42a1.81,1.81,0,0,0-.05.36.49.49,0,0,0,.17.42,1,1,0,0,0,.51.11,1.45,1.45,0,0,0,.37-.05,1.26,1.26,0,0,0,.36-.12h.15l-.28,1.2a6.06,6.06,0,0,1-.64.12A6.17,6.17,0,0,1,356.11,229.55Z"/><path class="cls-3" d="M369.1,229.44h-1.93l-.17-1.51h-2.71l-.87,1.51h-2l4.44-7.4h2.21Zm-2.24-2.84-.3-2.64-1.51,2.64Z"/><path class="cls-3" d="M373.09,223.86l-1.29,5.58H370l1.3-5.58Zm.55-2.16-.31,1.36h-1.9l.31-1.36Z"/><path class="cls-3" d="M380.71,221.7l-1.79,7.74h-1.8l.13-.58-.45.3a3.62,3.62,0,0,1-.44.24,3.81,3.81,0,0,1-.44.15,2.54,2.54,0,0,1-.52,0,1.67,1.67,0,0,1-1.29-.53,2.1,2.1,0,0,1-.49-1.5,4.28,4.28,0,0,1,.26-1.49,4.07,4.07,0,0,1,.7-1.24,3.43,3.43,0,0,1,1-.83,2.66,2.66,0,0,1,1.25-.31,3.15,3.15,0,0,1,.8.09,3.71,3.71,0,0,1,.7.29l.55-2.38Zm-2.6,3.46-.38-.12a1.69,1.69,0,0,0-.41-.06,1.55,1.55,0,0,0-.78.19,1.91,1.91,0,0,0-.58.52,2.42,2.42,0,0,0-.34.74,3.51,3.51,0,0,0-.12.88.82.82,0,0,0,.94,1,1.43,1.43,0,0,0,.52-.11,3.06,3.06,0,0,0,.51-.26Z"/><path class="cls-3" d="M390.93,229.44h-1.64l-2.17-5.13-1.18,5.13h-1.76l1.7-7.4H388l1.87,4.28,1-4.28h1.77Z"/><path class="cls-3" d="M395.86,229.6a3.37,3.37,0,0,1-2.21-.64,2.11,2.11,0,0,1-.77-1.74,3.71,3.71,0,0,1,.25-1.4,3.24,3.24,0,0,1,.73-1.12A3.31,3.31,0,0,1,395,224a3.85,3.85,0,0,1,1.5-.28,3,3,0,0,1,1.89.51,1.8,1.8,0,0,1,.63,1.49,3.52,3.52,0,0,1-.06.66c-.05.22-.11.43-.18.65h-4.16v.11a1.11,1.11,0,0,0,.41.91,2,2,0,0,0,1.25.33,3.22,3.22,0,0,0,1.12-.2,5.15,5.15,0,0,0,.91-.44h.2l-.33,1.43a5.22,5.22,0,0,1-1.1.35A6.11,6.11,0,0,1,395.86,229.6Zm1.37-3.66a1.11,1.11,0,0,0,0-.17.76.76,0,0,0,0-.15A.74.74,0,0,0,397,225a1,1,0,0,0-.7-.21,1.44,1.44,0,0,0-.93.3,1.85,1.85,0,0,0-.57.84Z"/><path class="cls-3" d="M402.62,229.6a3.34,3.34,0,0,1-2.2-.64,2.11,2.11,0,0,1-.78-1.74,3.92,3.92,0,0,1,.25-1.4,3.27,3.27,0,0,1,.74-1.12,3.17,3.17,0,0,1,1.14-.74,3.9,3.9,0,0,1,1.51-.28,3,3,0,0,1,1.88.51,1.77,1.77,0,0,1,.64,1.49,2.84,2.84,0,0,1-.07.66,3.94,3.94,0,0,1-.18.65H401.4v.11a1.08,1.08,0,0,0,.41.91,2,2,0,0,0,1.25.33,3.17,3.17,0,0,0,1.11-.2,5.26,5.26,0,0,0,.92-.44h.2l-.34,1.43a5,5,0,0,1-1.1.35A6,6,0,0,1,402.62,229.6Zm1.37-3.66,0-.17v-.15a.76.76,0,0,0-.24-.61,1.07,1.07,0,0,0-.71-.21,1.44,1.44,0,0,0-.93.3,1.85,1.85,0,0,0-.57.84Z"/><path class="cls-3" d="M413.47,221.7l-1.79,7.74h-1.8l.13-.58-.45.3a3.62,3.62,0,0,1-.44.24,3.81,3.81,0,0,1-.44.15,2.54,2.54,0,0,1-.52,0,1.67,1.67,0,0,1-1.29-.53,2.1,2.1,0,0,1-.49-1.5,4.28,4.28,0,0,1,.26-1.49,4.07,4.07,0,0,1,.7-1.24,3.35,3.35,0,0,1,1-.83,2.59,2.59,0,0,1,1.24-.31,3.15,3.15,0,0,1,.8.09,3.71,3.71,0,0,1,.7.29l.55-2.38Zm-2.6,3.46a2.9,2.9,0,0,0-.38-.12,1.69,1.69,0,0,0-.41-.06,1.49,1.49,0,0,0-.77.19,1.83,1.83,0,0,0-.59.52,2.21,2.21,0,0,0-.33.74,3.13,3.13,0,0,0-.13.88.83.83,0,0,0,.95,1,1.42,1.42,0,0,0,.51-.11,3.06,3.06,0,0,0,.51-.26Z"/><path class="cls-3" d="M415.51,229.6a6.94,6.94,0,0,1-1.38-.14,4.12,4.12,0,0,1-1-.31l.34-1.47h.16l.28.21a2.72,2.72,0,0,0,.48.23,2.91,2.91,0,0,0,.61.2,3,3,0,0,0,.75.08,2.11,2.11,0,0,0,.9-.14.42.42,0,0,0,.31-.39.33.33,0,0,0-.22-.31,5.55,5.55,0,0,0-.89-.26,3.64,3.64,0,0,1-1.56-.63,1.2,1.2,0,0,1-.42-.93,1.68,1.68,0,0,1,.85-1.49,4.11,4.11,0,0,1,2.29-.55,6,6,0,0,1,1.25.13,3.69,3.69,0,0,1,.92.27l-.33,1.41h-.15a2.9,2.9,0,0,0-.86-.44,3,3,0,0,0-1-.17,2.3,2.3,0,0,0-.88.13.44.44,0,0,0-.3.42.38.38,0,0,0,.26.34,4.61,4.61,0,0,0,.83.24,4.06,4.06,0,0,1,1.53.58,1.13,1.13,0,0,1,.46,1,1.66,1.66,0,0,1-.85,1.48A4.31,4.31,0,0,1,415.51,229.6Z"/><path class="cls-3" d="M231.75,249.27H189.26a10,10,0,0,1-10-10V179.65a4.33,4.33,0,0,0-4.32-4.33H113a10,10,0,0,1-10-10v-42.5a10,10,0,0,1,10-10h61.89a4.33,4.33,0,0,0,4.32-4.33V45.2a10.92,10.92,0,0,1,10.91-10.9h41.6a10,10,0,0,1,10,10v64.16a4.33,4.33,0,0,0,4.33,4.33H308a10,10,0,0,1,10,10v42.5a10,10,0,0,1-10,10h-61.9a4.33,4.33,0,0,0-4.33,4.33v59.61A10,10,0,0,1,231.75,249.27ZM113,118.48a4.33,4.33,0,0,0-4.33,4.33v42.5a4.33,4.33,0,0,0,4.33,4.32h61.89a10,10,0,0,1,10,10v59.61a4.33,4.33,0,0,0,4.33,4.33h42.49a4.33,4.33,0,0,0,4.33-4.33V179.65a10,10,0,0,1,10-10H308a4.34,4.34,0,0,0,4.33-4.32v-42.5a4.34,4.34,0,0,0-4.33-4.33h-61.9a10,10,0,0,1-10-10V44.31A4.33,4.33,0,0,0,231.75,40h-41.6a5.22,5.22,0,0,0-5.22,5.22v63.27a10,10,0,0,1-10,10Z"/><path class="cls-3" d="M105.41,175.73a1.1,1.1,0,0,1-.25,0,1.68,1.68,0,0,1-1.45-1.56L97.12,81.92l-19.86,62a1.71,1.71,0,0,1-1.55,1.18A1.73,1.73,0,0,1,74.06,144l-5-12.16-7.28,12.38a1.7,1.7,0,0,1-1.47.84H28.73a1.71,1.71,0,1,1,0-3.41h30.6l8.52-14.5a1.71,1.71,0,0,1,1.59-.83,1.7,1.7,0,0,1,1.46,1.05l4.54,11L96.57,72.47a1.7,1.7,0,0,1,3.32.4l6.66,93.25,16.21-43.21a1.7,1.7,0,0,1,3.29.47l1.5,19.45,4.55-5.12a1.71,1.71,0,0,1,2.77.31l4,7.24h47a1.71,1.71,0,0,1,0,3.41h-48a1.72,1.72,0,0,1-1.49-.88l-3.34-6-5.62,6.33a1.7,1.7,0,0,1-3-1l-1.22-15.77L107,174.63A1.72,1.72,0,0,1,105.41,175.73Z"/><path class="cls-3" d="M312.21,162.2H312a1.71,1.71,0,0,1-1.52-1.5l-4.74-40.28-13.45,27.31a1.71,1.71,0,0,1-1.53.95h-47.3a1.71,1.71,0,0,1,0-3.41h46.24l15.53-31.53a1.71,1.71,0,0,1,3.23.56L313,152.86l28.24-82.23a1.7,1.7,0,0,1,3.31.44l5.1,76.47,9-12.4a1.73,1.73,0,0,1,1.34-.71,1.63,1.63,0,0,1,1.37.64l7.22,9,0,0h17.15a1.71,1.71,0,0,1,0,3.41h-18a1.69,1.69,0,0,1-1.41-.74l-.42-.61L360.09,139l-10.42,14.42a1.67,1.67,0,0,1-1.85.64,1.69,1.69,0,0,1-1.23-1.52l-4.85-72.74-27.92,81.3A1.71,1.71,0,0,1,312.21,162.2Z"/></g></g></svg>