<svg xmlns="http://www.w3.org/2000/svg" viewBox="0 0 1364 307.97"><defs><style>.cls-1,.cls-2,.cls-3{fill:#fff;}.cls-1{opacity:0.3;}.cls-2{opacity:0.71;}</style></defs><title>Asset 2</title><g id="Layer_2" data-name="Layer 2"><g id="Layer_1-2" data-name="Layer 1"><path class="cls-1" d="M1364,9.85V308H0v-51.1A1262.58,1262.58,0,0,0,191.09,209.6c69-22.72,142.64-29.16,215.26-33.37,75.39-4.37,150.72,9.7,226,.57,74.2-9,149.79-26.47,213.65-64.83C1051.92-11.72,1302.71-9.47,1364,9.85Z"/><path class="cls-2" d="M1364,25.65V308H0V266.46c62.9-18.18,127.31-32.17,191.09-46.86,70.79-16.3,142.65-29.07,215.26-33.37,74.11-4.39,144.65-2.26,226,.57C707.05,189.39,781.6,159.42,846,122,1051.41,2.51,1302.66,16.44,1364,25.65Z"/><path class="cls-3" d="M1364,37.84V308H0V276.46c62.9-18.18,127.31-32.17,191.09-46.86,70.79-16.3,143-24.64,215.26-33.37,72.41-8.75,150.35-12.89,226,.57C719.39,212.28,780.49,167,846,132,1047.89,23.91,1302.19,33.59,1364,37.84Z"/></g></g></svg>