<svg xmlns="http://www.w3.org/2000/svg" viewBox="0 0 1364.1 128.39"><defs><style>.cls-1,.cls-2,.cls-3{fill:#e3fff7;}.cls-1{opacity:0.3;}.cls-2{opacity:0.71;}</style></defs><title>Asset 3</title><g id="Layer_2" data-name="Layer 2"><g id="Layer_1-2" data-name="Layer 1"><path class="cls-1" d="M1364.05,128.39H0q0-21.45,0-42.91L0,4.58A1353.88,1353.88,0,0,1,488.2,53.81c27.64,8,55,17,82.83,24.47,27.53,7.45,55.54,13.55,84,15.89,29,2.38,58.09.25,86.71-4.7S798.25,77,826,68.89c20.76-6,41.42-12.4,62.22-18.31a1341.86,1341.86,0,0,1,475.87-46v.44q0,61.67,0,123.34"/><path class="cls-2" d="M1364.05,14.13V128.39H.05V14.13c61.34-5.29,312.59-13.3,518,55.36a823.07,823.07,0,0,0,79.63,22.42q21.06,4.74,42.4,8.15c14.21,2.24,28.52,4.26,42.93,4.42s28.43-2.4,42.62-4.68,28.44-5.08,42.53-8.29c26.32-6,52.29-13.46,77.89-22C1051.46.83,1302.71,8.84,1364.05,14.13Z"/><path class="cls-3" d="M1364.05,21.14V128.39H.05V21.14c61.81-2.45,316.11-8,518,54.1,24.66,7.59,49,16.1,73.87,23.11,12.8,3.61,25.72,6.82,38.77,9.36C652.9,112,675.39,114.79,698,113c28.27-2.3,56.28-9.22,83.41-17.27,21.68-6.43,43-13.84,64.67-20.45C1047.94,13.13,1302.24,18.69,1364.05,21.14Z"/></g></g></svg>