<svg xmlns="http://www.w3.org/2000/svg" xmlns:xlink="http://www.w3.org/1999/xlink" viewBox="0 0 1997 132.47"><defs><style>.cls-1{opacity:0.3;fill:url(#linear-gradient);}.cls-2{opacity:0.7;fill:url(#linear-gradient-2);}.cls-3{fill:url(#linear-gradient-3);}</style><linearGradient id="linear-gradient" x1="469.5" y1="-469.26" x2="1527.35" y2="588.59" gradientUnits="userSpaceOnUse"><stop offset="0" stop-color="#ff2e1e"/><stop offset="1" stop-color="#ff0059"/></linearGradient><linearGradient id="linear-gradient-2" x1="472.04" y1="-449.36" x2="1524.97" y2="603.57" xlink:href="#linear-gradient"/><linearGradient id="linear-gradient-3" x1="473.69" y1="-441.83" x2="1522.49" y2="606.98" xlink:href="#linear-gradient"/></defs><title>Asset 4</title><g id="Layer_2" data-name="Layer 2"><g id="Layer_1-2" data-name="Layer 1"><path class="cls-1" d="M1997,.54v118.4H0V.23C241.35-2.22,483.41,14.51,715.2,49.82c48.94,7.46,97.45,15.71,146.65,22.68,48.74,6.91,98.33,12.56,148.73,14.72,51.34,2.2,102.85.24,153.52-4.36,50.49-4.58,100-11.57,149.17-19.07,36.76-5.6,73.33-11.48,110.16-17C1610,19.17,1803.16,3.65,1997,.54Z"/><path class="cls-2" d="M1997,22.65V131.54H0V22.69c154.73,1,365.16,8.46,567.23,33.66C614.24,62.21,660.79,69,706.08,77c46.32,8.11,93.34,15.15,141,20.79q31.83,3.72,64,6.59c3.67.33,7.36.64,11,1,25.16,2.07,50.49,4,76,4.1s50.33-2.23,75.45-4.33,50.35-4.72,75.3-7.7c46.6-5.54,92.57-12.47,137.9-20.4C1528.53,34.66,1806.14,23.76,1997,22.65Z"/><path class="cls-3" d="M1997,33.5v99H0V31.86c140.54.14,355.28,4.41,567.23,24.49,73,6.92,145.75,15.72,215,26.86,43,6.94,85.56,14.69,128.88,21.13l1.91.3c22.66,3.34,45.53,6.31,68.63,8.67,39.33,4,79.14,6.57,119.12,4.86,50-2.13,99.64-8.54,147.67-16,38.38-6,76.22-12.83,114.5-19C1571.39,49.64,1811.43,37.41,1997,33.5Z"/></g></g></svg>