<svg xmlns="http://www.w3.org/2000/svg" viewBox="0 0 232.03 232.02"><defs><style>.cls-1{fill:#fff;}.cls-2{fill:#f6f6f6;}</style></defs><title>Asset 2</title><g id="Layer_2" data-name="Layer 2"><g id="Layer_1-2" data-name="Layer 1"><path class="cls-1" d="M99.7,106.55l8.41,22.5H103l-1.7-5H92.86l-1.76,5h-5l8.51-22.5Zm.28,13.8-2.83-8.25h-.07l-2.93,8.25Z"/><path class="cls-1" d="M121.28,106.55a14.65,14.65,0,0,1,2.93.28,6.38,6.38,0,0,1,2.27.93,4.29,4.29,0,0,1,1.46,1.72,6,6,0,0,1,.52,2.65,4.94,4.94,0,0,1-.77,2.83,5.56,5.56,0,0,1-2.28,1.86,5.41,5.41,0,0,1,3.1,2.1,6.89,6.89,0,0,1,.36,6.55,5.64,5.64,0,0,1-1.78,2,7.64,7.64,0,0,1-2.55,1.17,11.64,11.64,0,0,1-3,.38h-10.9v-22.5Zm-.63,9.11a3.53,3.53,0,0,0,2.17-.63,2.38,2.38,0,0,0,.85-2,2.57,2.57,0,0,0-.28-1.29,2.06,2.06,0,0,0-.76-.79,3.23,3.23,0,0,0-1.08-.4,7.62,7.62,0,0,0-1.28-.11h-4.63v5.27Zm.28,9.54a6.24,6.24,0,0,0,1.39-.14,3.25,3.25,0,0,0,1.16-.47,2.35,2.35,0,0,0,.81-.9,3.09,3.09,0,0,0,.3-1.45,2.91,2.91,0,0,0-1-2.47A4.12,4.12,0,0,0,121,119h-5.39v6.17Z"/><path class="cls-1" d="M146.67,112.55a5.07,5.07,0,0,0-2.6-2.08,5.11,5.11,0,0,0-1.75-.3,5.77,5.77,0,0,0-2.83.65,5.33,5.33,0,0,0-1.89,1.73,7.69,7.69,0,0,0-1.06,2.48,12.3,12.3,0,0,0-.33,2.86,11.46,11.46,0,0,0,.33,2.76,7.5,7.5,0,0,0,1.06,2.41,5.4,5.4,0,0,0,1.89,1.72,5.77,5.77,0,0,0,2.83.64,4.59,4.59,0,0,0,3.55-1.38,7.45,7.45,0,0,0,1.58-4h4.77a13.46,13.46,0,0,1-1,4.11,9.19,9.19,0,0,1-2.08,2.9,8.83,8.83,0,0,1-3,1.83,11.13,11.13,0,0,1-3.82.63,11.47,11.47,0,0,1-4.64-.9,9.88,9.88,0,0,1-3.48-2.47,11,11,0,0,1-2.18-3.7,13.72,13.72,0,0,1-.75-4.59,14.18,14.18,0,0,1,.75-4.68,11.32,11.32,0,0,1,2.18-3.76,9.87,9.87,0,0,1,3.48-2.52,12.14,12.14,0,0,1,8.16-.38,9.63,9.63,0,0,1,3,1.56,8.46,8.46,0,0,1,2.16,2.54,9.18,9.18,0,0,1,1.07,3.46h-4.79A4.07,4.07,0,0,0,146.67,112.55Z"/><path class="cls-1" d="M140.93,11.37a3.5,3.5,0,0,1,3.5,3.5v71.5a3.5,3.5,0,0,0,3.5,3.5h69.24a3.5,3.5,0,0,1,3.5,3.5V143.2a3.5,3.5,0,0,1-3.5,3.5H147.93a3.5,3.5,0,0,0-3.5,3.5v67a3.5,3.5,0,0,1-3.5,3.49H91.09a3.5,3.5,0,0,1-3.5-3.49v-67a3.5,3.5,0,0,0-3.49-3.5H14.87a3.49,3.49,0,0,1-3.5-3.5V93.37a3.49,3.49,0,0,1,3.5-3.5H84.1a3.5,3.5,0,0,0,3.49-3.5V15.76A4.39,4.39,0,0,1,92,11.37h49m0-11.37H92A15.78,15.78,0,0,0,76.23,15.76V78.5H14.87A14.89,14.89,0,0,0,0,93.37V143.2a14.89,14.89,0,0,0,14.87,14.87H76.23v59.09A14.88,14.88,0,0,0,91.09,232h49.84a14.88,14.88,0,0,0,14.87-14.86V158.07h61.37A14.88,14.88,0,0,0,232,143.2V93.37A14.88,14.88,0,0,0,217.17,78.5H155.8V14.87A14.89,14.89,0,0,0,140.93,0Z"/><path class="cls-2" d="M137.26,223.5H94.76a10,10,0,0,1-10-10V153.87a4.33,4.33,0,0,0-4.33-4.33H18.54a10,10,0,0,1-10-10V97a10,10,0,0,1,10-10H80.42a4.33,4.33,0,0,0,4.33-4.32V19.43A10.92,10.92,0,0,1,95.66,8.52h41.6a10,10,0,0,1,10,10V82.7A4.33,4.33,0,0,0,151.6,87h61.9a10,10,0,0,1,10,10v42.49a10,10,0,0,1-10,10H151.6a4.33,4.33,0,0,0-4.33,4.33v59.61A10,10,0,0,1,137.26,223.5ZM18.54,92.71A4.33,4.33,0,0,0,14.21,97v42.49a4.33,4.33,0,0,0,4.33,4.33H80.42a10,10,0,0,1,10,10v59.61a4.33,4.33,0,0,0,4.32,4.33h42.5a4.34,4.34,0,0,0,4.33-4.33V153.87a10,10,0,0,1,10-10h61.9a4.33,4.33,0,0,0,4.32-4.33V97a4.33,4.33,0,0,0-4.32-4.33H151.6a10,10,0,0,1-10-10V18.54a4.34,4.34,0,0,0-4.33-4.33H95.66a5.22,5.22,0,0,0-5.22,5.22V82.7a10,10,0,0,1-10,10Z"/></g></g></svg>